<svg width="34" height="35" viewBox="0 0 34 35" fill="none" xmlns="http://www.w3.org/2000/svg">
<path d="M27.8806 0.470703H6.14175C4.70038 0.470703 3.31803 1.04329 2.29882 2.0625C1.27962 3.0817 0.707031 4.46405 0.707031 5.90543V24.0212C0.707031 25.4625 1.27962 26.8449 2.29882 27.8641C3.31803 28.8833 4.70038 29.4559 6.14175 29.4559H9.7649V33.079C9.75846 33.4018 9.83842 33.7205 9.99649 34.0021C10.1546 34.2836 10.385 34.5178 10.664 34.6803C10.9429 34.8429 11.2603 34.928 11.5831 34.9267C11.906 34.9255 12.2227 34.838 12.5004 34.6732L21.1235 29.4559H27.8806C29.322 29.4559 30.7044 28.8833 31.7236 27.8641C32.7428 26.8449 33.3154 25.4625 33.3154 24.0212V5.90543C33.3154 4.46405 32.7428 3.0817 31.7236 2.0625C30.7044 1.04329 29.322 0.470703 27.8806 0.470703ZM29.6922 24.0212C29.6922 24.5016 29.5014 24.9624 29.1616 25.3021C28.8219 25.6419 28.3611 25.8327 27.8806 25.8327H20.6343C20.3092 25.8328 19.9901 25.9204 19.7104 26.0864L13.388 29.8544V27.6443C13.3918 27.4029 13.3473 27.1631 13.2571 26.9391C13.1669 26.7151 13.0328 26.5114 12.8627 26.34C12.5179 26.0075 12.0554 25.8251 11.5765 25.8327H6.14175C5.66129 25.8327 5.20051 25.6419 4.86078 25.3021C4.52104 24.9624 4.33018 24.5016 4.33018 24.0212V5.90543C4.33018 5.42497 4.52104 4.96419 4.86078 4.62445C5.20051 4.28471 5.66129 4.09385 6.14175 4.09385H27.8806C28.3611 4.09385 28.8219 4.28471 29.1616 4.62445C29.5014 4.96419 29.6922 5.42497 29.6922 5.90543V24.0212ZM24.2575 11.3401C24.2575 11.8206 24.0666 12.2814 23.7269 12.6211C23.3872 12.9609 22.9264 13.1517 22.4459 13.1517H11.5765C11.096 13.1517 10.6352 12.9609 10.2955 12.6211C9.95576 12.2814 9.7649 11.8206 9.7649 11.3401C9.7649 10.8597 9.95576 10.3989 10.2955 10.0592C10.6352 9.71944 11.096 9.52857 11.5765 9.52857H22.4459C22.9264 9.52857 23.3872 9.71944 23.7269 10.0592C24.0666 10.3989 24.2575 10.8597 24.2575 11.3401ZM18.8228 18.5864C18.8228 19.0669 18.6319 19.5277 18.2922 19.8674C17.9524 20.2072 17.4917 20.398 17.0112 20.398H11.5765C11.096 20.398 10.6352 20.2072 10.2955 19.8674C9.95576 19.5277 9.7649 19.0669 9.7649 18.5864C9.7649 18.106 9.95576 17.6452 10.2955 17.3055C10.6352 16.9657 11.096 16.7749 11.5765 16.7749H17.0112C17.4917 16.7749 17.9524 16.9657 18.2922 17.3055C18.6319 17.6452 18.8228 18.106 18.8228 18.5864Z" fill="#3CA737"/>
</svg>
