<svg width="141" height="141" viewBox="0 0 141 141" fill="none" xmlns="http://www.w3.org/2000/svg">
<path d="M132.379 70.0833C132.379 78.2642 130.768 86.365 127.637 93.9231C124.507 101.481 119.918 108.349 114.133 114.133C108.349 119.918 101.481 124.507 93.9229 127.638C86.3648 130.768 78.264 132.38 70.0832 132.38C61.9023 132.38 53.8015 130.768 46.2434 127.638C38.6853 124.507 31.8178 119.918 26.033 114.133C20.2483 108.349 15.6596 101.481 12.5289 93.9231C9.39821 86.365 7.78686 78.2642 7.78687 70.0833L70.0832 70.0833H132.379Z" fill="#299F23"/>
<circle cx="70.0833" cy="70.0833" r="57.7821" fill="#DFDFDF"/>
<path d="M70.0832 35.0417C65.4628 35.0417 60.9462 36.4118 57.1045 38.9787C53.2628 41.5457 50.2685 45.1942 48.5004 49.4629C46.7322 53.7315 46.2696 58.4287 47.171 62.9603C48.0724 67.4919 50.2973 71.6545 53.5644 74.9216C56.8315 78.1887 60.9941 80.4136 65.5257 81.315C70.0573 82.2164 74.7545 81.7538 79.0231 79.9856C83.2918 78.2175 86.9403 75.2232 89.5073 71.3815C92.0742 67.5398 93.4443 63.0232 93.4443 58.4028C93.4443 52.207 90.9831 46.265 86.602 41.884C82.221 37.5029 76.279 35.0417 70.0832 35.0417ZM70.0832 70.0833C67.773 70.0833 65.5147 69.3983 63.5939 68.1148C61.673 66.8313 60.1759 65.0071 59.2918 62.8727C58.4077 60.7384 58.1764 58.3898 58.6271 56.124C59.0778 53.8582 60.1903 51.7769 61.8238 50.1434C63.4574 48.5098 65.5387 47.3973 67.8045 46.9466C70.0703 46.4959 72.4188 46.7273 74.5532 47.6113C76.6875 48.4954 78.5118 49.9925 79.7953 51.9134C81.0787 53.8343 81.7638 56.0926 81.7638 58.4028C81.7638 61.5006 80.5332 64.4716 78.3426 66.6622C76.1521 68.8527 73.1811 70.0833 70.0832 70.0833ZM70.0832 11.6805C58.5322 11.6805 47.2407 15.1058 37.6364 21.5232C28.0321 27.9406 20.5465 37.0618 16.1261 47.7335C11.7057 58.4053 10.5492 70.1481 12.8026 81.4771C15.0561 92.8062 20.6184 103.213 28.7862 111.38C36.954 119.548 47.3604 125.11 58.6894 127.364C70.0184 129.617 81.7613 128.461 92.433 124.04C103.105 119.62 112.226 112.134 118.643 102.53C125.061 92.9259 128.486 81.6343 128.486 70.0833C128.486 62.4138 126.975 54.8193 124.04 47.7335C121.105 40.6478 116.803 34.2095 111.38 28.7863C105.957 23.3631 99.5188 19.0612 92.433 16.1262C85.3473 13.1912 77.7528 11.6805 70.0832 11.6805ZM46.7221 110.498V105.125C46.7221 103.576 47.3374 102.091 48.4327 100.995C49.528 99.9 51.0135 99.2847 52.5624 99.2847H87.6041C89.153 99.2847 90.6385 99.9 91.7338 100.995C92.829 102.091 93.4443 103.576 93.4443 105.125V110.498C86.3514 114.628 78.2907 116.803 70.0832 116.803C61.8758 116.803 53.815 114.628 46.7221 110.498ZM104.716 101.329C103.852 97.435 101.685 93.9527 98.5737 91.4572C95.4623 88.9617 91.5926 87.6025 87.6041 87.6041H52.5624C48.5739 87.6025 44.7042 88.9617 41.5928 91.4572C38.4814 93.9527 36.3146 97.435 35.4504 101.329C29.3799 94.6251 25.3855 86.3037 23.9518 77.3743C22.5181 68.4449 23.7068 59.2913 27.3735 51.0242C31.0403 42.7571 37.0275 35.7319 44.6088 30.8009C52.1901 25.87 61.0395 23.2453 70.0832 23.2453C79.127 23.2453 87.9764 25.87 95.5577 30.8009C103.139 35.7319 109.126 42.7571 112.793 51.0242C116.46 59.2913 117.648 68.4449 116.215 77.3743C114.781 86.3037 110.787 94.6251 104.716 101.329Z" fill="white"/>
</svg>
